<svg width="45" height="45" viewBox="0 0 45 45" fill="none" xmlns="http://www.w3.org/2000/svg">
<path d="M39.7266 0H5.27344C2.36566 0 0 2.36566 0 5.27344V39.7266C0 42.6343 2.36566 45 5.27344 45H39.7266C42.6343 45 45 42.6343 45 39.7266V5.27344C45 2.36566 42.6343 0 39.7266 0ZM41.4844 39.7266C41.4844 40.6958 40.6958 41.4844 39.7266 41.4844H29.707V27.1582H35.1378L36.0352 21.709H29.707V17.9297C29.707 16.4377 30.8518 15.293 32.3438 15.293H35.9473V9.84375H32.3438C27.8681 9.84375 24.2597 13.4692 24.2597 17.945V21.709H18.9844V27.1582H24.2597V41.4844H5.27344C4.30418 41.4844 3.51562 40.6958 3.51562 39.7266V5.27344C3.51562 4.30418 4.30418 3.51562 5.27344 3.51562H39.7266C40.6958 3.51562 41.4844 4.30418 41.4844 5.27344V39.7266Z" fill="white"/>
</svg>
