<svg width="47" height="47" viewBox="0 0 47 47" fill="none" xmlns="http://www.w3.org/2000/svg">
<path d="M46.8805 13.8181C46.7704 11.3208 46.3665 9.60397 45.7879 8.11629C45.191 6.53714 44.2726 5.12334 43.0695 3.94804C41.894 2.75444 40.4706 1.82697 38.9094 1.2395C37.4128 0.660995 35.7046 0.257153 33.2068 0.147047C30.6904 0.0276162 29.8915 0 23.5091 0C17.1268 0 16.3279 0.0276162 13.8208 0.137722C11.323 0.247828 9.60583 0.652029 8.11822 1.23018C6.53841 1.82697 5.12433 2.74512 3.9488 3.94804C2.75498 5.12334 1.82768 6.54647 1.23974 8.10732C0.661123 9.60397 0.257203 11.3115 0.147076 13.8088C0.0276215 16.3247 0 17.1235 0 23.5046C0 29.8857 0.0276215 30.6844 0.137749 33.1911C0.247876 35.6883 0.652155 37.4052 1.23077 38.8929C1.82768 40.472 2.75498 41.8858 3.9488 43.0611C5.12433 44.2547 6.54774 45.1822 8.10889 45.7697C9.60583 46.3482 11.3137 46.752 13.8118 46.8621C16.3186 46.9726 17.1178 46.9999 23.5002 46.9999C29.8825 46.9999 30.6814 46.9726 33.1885 46.8621C35.6863 46.752 37.4035 46.3482 38.8911 45.7697C42.0504 44.5485 44.5481 42.0512 45.7696 38.8929C46.3478 37.3962 46.7521 35.6883 46.8623 33.1911C46.9724 30.6844 47 29.8857 47 23.5046C47 17.1235 46.9907 16.3247 46.8805 13.8181ZM42.6473 33.0074C42.5461 35.3028 42.1605 36.5423 41.8391 37.3686C41.0492 39.4162 39.4238 41.0412 37.3759 41.831C36.5494 42.1523 35.3007 42.5379 33.0138 42.6387C30.5343 42.7491 29.7907 42.7764 23.5185 42.7764C17.2462 42.7764 16.4933 42.7491 14.0228 42.6387C11.727 42.5379 10.4872 42.1523 9.66072 41.831C8.64159 41.4544 7.71394 40.8576 6.96098 40.0772C6.18041 39.315 5.58349 38.3969 5.20684 37.378C4.88542 36.5516 4.4998 35.3028 4.399 33.0167C4.28851 30.5377 4.26125 29.7939 4.26125 23.5229C4.26125 17.2519 4.28851 16.499 4.399 14.0294C4.4998 11.734 4.88542 10.4945 5.20684 9.66817C5.58349 8.64888 6.18041 7.72177 6.97031 6.9686C7.73223 6.18817 8.65056 5.59138 9.67005 5.21515C10.4965 4.8938 11.7456 4.50825 14.0321 4.40711C16.5116 4.297 17.2556 4.26939 23.5274 4.26939C29.809 4.26939 30.5526 4.297 33.0231 4.40711C35.319 4.50825 36.5587 4.8938 37.3852 5.21515C38.4043 5.59138 39.332 6.18817 40.0849 6.9686C40.8655 7.73074 41.4624 8.64888 41.8391 9.66817C42.1605 10.4945 42.5461 11.743 42.6473 14.0294C42.7574 16.5084 42.785 17.2519 42.785 23.5229C42.785 29.7939 42.7574 30.5284 42.6473 33.0074Z" fill="white"/>
<path d="M23.5092 11.4309C16.8423 11.4309 11.4332 16.8387 11.4332 23.5046C11.4332 30.1705 16.8423 35.5782 23.5092 35.5782C30.1763 35.5782 35.5851 30.1705 35.5851 23.5046C35.5851 16.8387 30.1763 11.4309 23.5092 11.4309ZM23.5092 31.3364C19.1841 31.3364 15.6758 27.8292 15.6758 23.5046C15.6758 19.1799 19.1841 15.6727 23.5092 15.6727C27.8346 15.6727 31.3426 19.1799 31.3426 23.5046C31.3426 27.8292 27.8346 31.3364 23.5092 31.3364V31.3364Z" fill="white"/>
<path d="M39 11C39 12.6567 37.6568 14 35.9998 14C34.3432 14 33 12.6567 33 11C33 9.34292 34.3432 8 35.9998 8C37.6568 8 39 9.34292 39 11Z" fill="white"/>
</svg>
