<svg width="204" height="32" viewBox="0 0 204 32" fill="none" xmlns="http://www.w3.org/2000/svg">
<path d="M0.289863 27.111L10.8665 2.81465C11.591 1.18493 12.8947 0.147705 14.7784 0.147705H15.2131C17.0965 0.147705 18.2557 1.18465 19.125 2.81465L29.7016 27.111C29.8467 27.5555 29.9915 27.9997 29.9915 28.4441C29.9915 30.2219 28.5427 31.7035 26.8041 31.7035C25.2102 31.7035 24.1961 30.8144 23.6167 29.3333L21.5882 24.4444H8.11373L5.94043 29.4813C5.50577 30.8144 4.34659 31.7035 3.04261 31.7035C1.30398 31.7035 0 30.2219 0 28.5922C0 27.9997 0.144796 27.5555 0.289863 27.111ZM18.9802 18.5185L14.7784 8.29604L10.5766 18.5183H18.9802V18.5185Z" fill="#EB4A3B"/>
<path d="M33.9034 3.85184C33.9034 1.926 35.3522 0.444336 37.2359 0.444336H46.2189C53.4631 0.444336 57.8097 4.74073 57.8097 11.111V11.2593C57.8097 18.3702 52.3039 22.0741 45.6392 22.0741H40.5681V28.1482C40.5681 30.0746 39.1193 31.5557 37.2356 31.5557C35.3522 31.5557 33.9031 30.0746 33.9031 28.1482L33.9034 3.85184ZM45.9291 16.1479C49.2615 16.1479 51.145 14.0735 51.145 11.4074V11.2591C51.145 8.14795 49.1165 6.51878 45.7843 6.51878H40.7132V15.9999L45.9291 16.1479Z" fill="#EB4A3B"/>
<path d="M60.4176 16C60.4176 7.11111 67.2271 0 76.5 0C85.7729 0 92.5824 7.11139 92.5824 15.8519V16C92.5824 24.7408 85.7729 32 76.5 32C67.2274 32 60.4176 24.8889 60.4176 16ZM85.4831 16C85.4831 10.6664 81.7159 6.22194 76.3552 6.22194C70.9945 6.22194 67.2274 10.5186 67.2274 15.8519V16C67.2274 21.3331 70.9945 25.7775 76.3552 25.7775C81.8607 25.6294 85.4831 21.3331 85.4831 16Z" fill="#EB4A3B"/>
<path d="M97.6536 3.70368C97.6536 1.77756 99.1023 0.295898 100.986 0.295898C102.87 0.295898 104.319 1.77756 104.319 3.70368V28.2962C104.319 30.2223 102.87 31.7039 100.986 31.7039C99.1021 31.7039 97.6536 30.2223 97.6536 28.2962V3.70368V3.70368Z" fill="#EB4A3B"/>
<path d="M109.1 27.111L119.677 2.81465C120.401 1.18493 121.705 0.147705 123.589 0.147705H124.023C125.907 0.147705 127.066 1.18465 127.935 2.81465L138.512 27.111C138.656 27.5555 138.801 27.9997 138.801 28.4441C138.801 30.2219 137.352 31.7035 135.614 31.7035C134.02 31.7035 133.005 30.8144 132.427 29.3333L130.254 24.4444H116.923L114.75 29.4813C114.171 30.8144 113.012 31.5555 111.708 31.5555C109.97 31.5555 108.665 30.0738 108.665 28.4441C108.665 27.9997 108.81 27.5555 109.1 27.111ZM127.79 18.5185L123.589 8.29632L119.387 18.5185H127.79Z" fill="#EB4A3B"/>
<path d="M145.322 24.1479C147.495 24.1479 149.088 25.7777 149.088 27.8518V27.9999C149.088 30.0741 147.495 31.7038 145.322 31.7038C143.148 31.7038 141.554 30.0741 141.554 27.9999V27.8518C141.554 25.7777 143.148 24.1479 145.322 24.1479Z" fill="#EB4A3B"/>
<path d="M171.546 16.7406C172.27 18.9628 171.835 23.5553 171.835 24.889C172.415 24.4445 173.139 23.9998 173.864 23.7034C174.588 23.4073 175.457 22.9629 176.182 22.5176C177.051 22.0729 177.775 21.6292 178.644 21.1845C179.513 20.7392 180.383 20.1476 181.253 19.407V25.629C180.093 26.5173 178.79 27.2578 177.341 27.999C175.892 28.7395 174.299 29.3323 172.705 29.9254C171.112 30.5181 169.518 30.9617 167.779 31.2587C166.185 31.5545 164.592 31.7037 163.143 31.7037C162.129 31.7037 161.114 31.5556 160.245 31.4076C159.376 31.2595 158.506 30.9626 157.782 30.5184C157.057 30.0745 156.478 29.6298 156.044 28.8892C155.609 28.1487 155.32 27.4076 155.32 26.519C155.03 26.519 154.884 26.667 154.595 26.667C154.306 26.667 154.16 26.667 153.871 26.667C153.581 26.667 153.291 26.667 153.002 26.667C152.712 26.667 152.566 26.519 152.422 26.519C152.277 26.3712 152.133 26.2231 151.987 25.9265C151.842 25.6301 151.842 25.3334 151.842 24.7409C151.842 24.2965 151.987 23.8517 152.131 23.5554C152.276 23.1101 152.566 22.8148 152.856 22.5187C153.145 22.2226 153.436 21.9256 153.725 21.7776C154.015 21.482 154.16 21.3331 154.305 21.1851C155.318 20.2965 156.188 19.5553 156.767 18.9628C157.347 18.3703 158.072 17.6298 158.651 16.8887C159.231 16.1481 159.811 15.4073 160.1 14.9626C160.535 14.5181 160.969 13.9259 161.404 13.1848C161.84 12.4442 162.564 11.7037 163.288 10.6665C164.013 9.62951 164.881 8.44424 166.041 6.96257C166.331 6.66646 166.476 6.37007 166.766 5.9259C167.055 5.62979 167.346 5.3334 167.779 5.03729C168.215 4.74118 168.504 4.59257 168.939 4.44451C169.374 4.29674 169.808 4.14868 170.388 4.14868C171.257 4.14868 171.981 4.29674 172.417 4.44451C172.851 4.59285 173.286 4.88924 173.43 5.18535C173.575 5.48146 173.719 5.77785 173.866 6.07424C173.866 6.37063 173.866 6.66674 173.866 6.81507C173.866 7.25952 173.721 7.70368 173.286 8.29646C172.995 8.88896 172.561 9.3334 172.126 9.9259C171.691 10.3703 171.257 10.8145 170.966 11.2592C170.532 11.704 170.387 12.0001 170.387 12.1481C170.387 12.7406 170.387 13.1848 170.532 13.7778C170.676 14.2223 170.676 14.6665 170.821 15.1109C171.256 15.704 171.401 16.1481 171.546 16.7406ZM165.75 16.5926L158.216 24.5928C158.361 24.5928 158.651 24.7409 158.941 25.0373C159.23 25.334 159.521 25.6306 159.81 25.9265C160.099 26.222 160.535 26.519 160.969 26.8151C161.404 27.1112 161.983 27.2595 162.563 27.2595C163.287 27.2595 163.867 27.1117 164.301 26.9637C164.736 26.6684 165.171 26.3712 165.461 26.0754C165.75 25.6306 165.896 25.1867 166.041 24.7415C166.185 24.149 166.62 21.9267 166.475 19.7045" fill="#EB4A3B"/>
<path d="M186.614 31.4076C184.876 31.4076 183.427 31.1115 182.267 30.5184C180.963 29.9259 179.949 29.0373 179.08 28.0006C178.211 26.9637 177.631 25.6306 177.196 24.2967C176.762 22.8151 176.617 21.334 176.617 19.8523C176.617 18.8153 176.762 17.6301 177.196 16.1484C177.631 14.6673 177.92 13.482 178.356 12.4451C178.79 11.4078 179.225 10.3706 179.805 9.33368C180.384 8.29702 181.109 7.40757 181.978 6.66701C182.847 5.92618 183.716 5.33368 184.731 4.88924C185.745 4.44479 186.904 4.14868 188.063 4.14868C189.077 4.14868 189.948 4.29674 190.817 4.59313C191.685 4.88951 192.41 5.33396 193.134 5.92646C193.714 6.51924 194.294 7.25979 194.583 8.14868C194.873 9.03757 195.163 9.92618 195.163 10.9637C195.163 12.1487 194.728 13.3337 194.003 14.667C193.279 16.0006 192.41 17.1856 191.395 18.2228C190.381 19.2595 189.222 20.149 187.918 20.8895C186.614 21.6301 185.165 22.2231 183.571 22.6673C183.861 23.1117 184.151 23.5559 184.44 23.8523C184.73 24.1484 185.02 24.4454 185.31 24.5934C185.6 24.7415 185.889 24.8895 186.179 25.0379C186.468 25.0379 186.759 25.1859 187.192 25.1859C188.207 25.1859 189.366 25.0379 190.67 24.5934C191.83 24.1484 192.988 23.557 194.148 22.9637C195.307 22.3712 196.321 21.6301 197.335 20.8895C198.348 20.149 199.219 19.4084 199.944 18.6673L203.421 22.2223C201.827 23.9992 200.088 25.4803 198.35 26.8142C197.625 27.4073 196.756 27.9998 195.887 28.4437C195.018 29.0365 194.003 29.4801 193.134 29.9248C192.12 30.3701 191.106 30.6659 190.091 30.9617C188.787 31.2595 187.773 31.4076 186.614 31.4076ZM182.992 18.3703C183.571 18.3703 184.296 18.2223 185.165 17.9253C185.889 17.6298 186.614 17.1848 187.338 16.5915C188.063 15.999 188.642 15.4065 189.222 14.5178C189.802 13.6287 190.236 12.8881 190.236 12.2956C190.236 11.5545 190.091 10.814 189.801 10.3695C189.512 9.77702 189.077 9.62868 188.642 9.62868C187.918 9.62868 187.193 9.77674 186.613 10.0734C186.033 10.3695 185.6 10.6659 185.164 11.2587C184.729 11.7034 184.44 12.2956 184.295 12.8881C184.006 13.4809 183.86 14.2215 183.571 15.1103C183.281 15.999 183.135 16.7395 183.135 17.1848C182.992 17.4817 182.992 17.9262 182.992 18.3703Z" fill="#EB4A3B"/>
<path d="M201.537 22.9627C202.897 22.9627 204 21.8352 204 20.4444C204 19.0535 202.897 17.926 201.537 17.926C200.177 17.926 199.074 19.0535 199.074 20.4444C199.074 21.8352 200.177 22.9627 201.537 22.9627Z" fill="#EB4A3B"/>
</svg>
