<svg width="126" height="126" viewBox="0 0 126 126" fill="none" xmlns="http://www.w3.org/2000/svg">
<path d="M62.9574 69.9419C47.6007 69.4413 43.9178 56.293 43.1295 52.0482C41.6511 51.7056 40.3338 50.8689 39.3954 49.6763C38.3241 48.2001 37.8272 46.3842 37.9975 44.5682C37.8758 43.5897 37.9608 42.5966 38.2471 41.653C38.5334 40.7095 39.0145 39.8365 39.6593 39.0906C40.0233 38.7174 40.4419 38.4017 40.9006 38.1541C38.0464 33.5461 36.6407 28.1876 36.8652 22.7719C38.6428 10.0697 48.8795 8.83357 52.0857 8.76206C53.5613 7.04577 55.4059 5.68543 57.4815 4.78284C61.3696 3.21452 65.667 2.97508 69.7052 4.10176C77.6432 6.17395 82.9369 10.1481 85.4484 15.9151C89.0241 24.1119 85.8877 33.5466 84.0863 37.7829C84.7733 38.0062 85.4065 38.3697 85.9456 38.8505C86.6792 39.5953 87.2321 40.4986 87.5615 41.4908C87.891 42.483 87.9882 43.5376 87.8458 44.5733C88.0178 46.3892 87.5213 48.2054 86.4496 49.6814C85.5102 50.8737 84.1926 51.7103 82.7139 52.0533C81.9255 56.293 78.2511 69.4413 62.9574 69.9419ZM43.7458 40.8767C43.1419 40.8486 42.5512 41.059 42.101 41.4625C41.7894 41.899 41.5674 42.3929 41.4478 42.9158C41.3283 43.4387 41.3136 43.98 41.4046 44.5086C41.4117 44.6222 41.4077 44.7363 41.3927 44.8491C41.3002 45.8264 41.5526 46.8053 42.1061 47.616C42.4514 48.0017 42.8703 48.3146 43.3381 48.5362C43.8059 48.7578 44.3133 48.8838 44.8305 48.9067C45.2198 48.9527 45.5813 49.1316 45.854 49.4133C46.1266 49.695 46.2938 50.0621 46.3271 50.4527C46.3833 51.0861 47.8936 66.0444 62.9608 66.5382C77.9446 66.0444 79.4617 51.0861 79.5179 50.4493C79.552 50.0593 79.7195 49.693 79.9921 49.412C80.2647 49.131 80.6258 48.9526 81.0146 48.9067C81.5318 48.884 82.0392 48.7581 82.5071 48.5365C82.9749 48.3148 83.3938 48.0019 83.7389 47.616C84.2949 46.8013 84.5474 45.8173 84.4523 44.8355C84.4382 44.726 84.4342 44.6154 84.4404 44.5052C84.5325 43.9593 84.5118 43.4003 84.3798 42.8627C84.2477 42.3251 84.007 41.8202 83.6725 41.379C83.1406 40.9873 82.4789 40.8143 81.8234 40.8955C81.5083 40.9514 81.1838 40.9173 80.8871 40.7973C80.5905 40.6772 80.3337 40.476 80.1462 40.2166C79.9587 39.9573 79.848 39.6504 79.8269 39.3311C79.8059 39.0117 79.8752 38.6929 80.027 38.4112C80.09 38.292 86.327 26.4548 82.3189 17.2551C80.2433 12.5012 75.7124 9.18262 68.8488 7.39138C65.5499 6.45783 62.0354 6.63736 58.8488 7.90219C57.036 8.68325 55.4558 9.91968 54.2617 11.4915C54.0898 11.7253 53.8605 11.9108 53.5959 12.0301C53.3314 12.1495 53.0405 12.1985 52.7514 12.1726C52.3104 12.1368 41.8848 11.4625 40.2502 23.1175C40.2502 23.1175 39.7785 32.3888 45.1489 38.0077C45.3829 38.2523 45.5387 38.5612 45.5963 38.8948C45.6539 39.2284 45.6108 39.5717 45.4724 39.8806C45.3448 40.1976 45.12 40.4658 44.8302 40.6466C44.5404 40.8275 44.2006 40.9116 43.8599 40.8869L43.7458 40.8767Z" fill="#0D518C"/>
<path d="M81.5271 40.9176C81.0877 40.918 80.6651 40.7484 80.3477 40.4444C80.0304 40.1404 79.8429 39.7255 79.8244 39.2864C79.804 38.8454 79.2761 28.5594 71.597 27.5701C68.0846 28.0162 64.5181 27.7381 61.1173 26.7529C57.7165 25.7678 54.5536 24.0966 51.8235 21.8422C49.6525 23.4751 44.65 28.4385 45.612 39.0242C45.6247 39.4575 45.4717 39.8793 45.1841 40.2037C44.8966 40.528 44.4961 40.7305 44.0644 40.7698C43.6327 40.8091 43.2023 40.6823 42.8609 40.4152C42.5195 40.1481 42.2928 39.7608 42.227 39.3324C40.8155 23.802 50.7882 18.4113 51.2122 18.1899C51.5278 18.0252 51.8871 17.9636 52.2395 18.0136C52.592 18.0637 52.9199 18.223 53.1771 18.4691C55.604 20.6673 58.4771 22.3154 61.5997 23.3008C64.7224 24.2861 68.021 24.5855 71.27 24.1783C71.4259 24.1531 71.5844 24.1474 71.7417 24.1613C80.3982 25.062 83.0425 34.3622 83.2298 39.1451C83.2473 39.5956 83.0854 40.0347 82.7796 40.366C82.4739 40.6974 82.0491 40.8939 81.5986 40.9125L81.5271 40.9176Z" fill="#0D518C"/>
<path d="M110.827 122.595H15.1728C14.7212 122.595 14.2881 122.415 13.9688 122.096C13.6495 121.777 13.4701 121.344 13.4701 120.892V101.91C13.4822 95.9109 15.8731 90.1612 20.1183 85.922C24.3635 81.6828 30.1166 79.3002 36.116 79.2966H39.3852C39.8368 79.2966 40.2699 79.476 40.5892 79.7953C40.9085 80.1147 41.0879 80.5477 41.0879 80.9993C41.0879 81.4509 40.9085 81.884 40.5892 82.2033C40.2699 82.5226 39.8368 82.702 39.3852 82.702H36.116C31.0195 82.7047 26.1321 84.7283 22.5253 88.329C18.9185 91.9297 16.8867 96.8138 16.8755 101.91V119.189H109.125V101.91C109.119 96.8177 107.093 91.9354 103.492 88.3345C99.8911 84.7335 95.0088 82.7079 89.9163 82.702H86.4122C85.9606 82.702 85.5275 82.5226 85.2082 82.2033C84.8888 81.884 84.7094 81.4509 84.7094 80.9993C84.7094 80.5477 84.8888 80.1147 85.2082 79.7953C85.5275 79.476 85.9606 79.2966 86.4122 79.2966H89.9163C95.9112 79.3052 101.658 81.6904 105.897 85.9295C110.136 90.1685 112.521 95.9154 112.53 101.91V120.892C112.53 121.344 112.351 121.777 112.031 122.096C111.712 122.415 111.279 122.595 110.827 122.595Z" fill="#0D518C"/>
<path d="M68.6904 122.595C68.4454 122.595 68.2032 122.542 67.9804 122.44C67.7576 122.337 67.5595 122.188 67.3997 122.003C67.2398 121.817 67.1219 121.599 67.054 121.363C66.9862 121.128 66.9699 120.881 67.0065 120.638L73.8973 75.0347C73.9338 74.7935 74.0217 74.5629 74.1551 74.3586C74.2885 74.1542 74.4642 73.981 74.6704 73.8505C74.8766 73.72 75.1085 73.6354 75.3502 73.6024C75.592 73.5693 75.838 73.5886 76.0716 73.6589L87.9633 77.2431C88.2001 77.3145 88.4186 77.4367 88.6034 77.6011C88.7882 77.7655 88.935 77.9682 89.0335 78.1951C89.132 78.4219 89.1799 78.6676 89.1739 78.9148C89.1679 79.1621 89.108 79.4051 88.9986 79.6269L84.2719 89.111L87.0132 92.1878C87.2562 92.4624 87.404 92.8081 87.4346 93.1735C87.4653 93.5389 87.3772 93.9044 87.1835 94.2157L70.1377 121.788C69.9852 122.034 69.7722 122.238 69.5189 122.379C69.2656 122.52 68.9804 122.594 68.6904 122.595ZM76.9724 77.4866L71.6174 112.925L83.6265 93.5142L80.9652 90.5259C80.7388 90.272 80.5936 89.9561 80.5484 89.619C80.5032 89.2818 80.56 88.9388 80.7115 88.6342L85.05 79.9266L76.9724 77.4866Z" fill="#0D518C"/>
<path d="M57.1138 122.595C56.8235 122.595 56.5379 122.521 56.2843 122.379C56.0307 122.238 55.8174 122.034 55.6648 121.788L38.6139 94.2208C38.4201 93.9095 38.332 93.544 38.3627 93.1786C38.3934 92.8132 38.5412 92.4675 38.7842 92.1929L41.5255 89.1161L36.7988 79.632C36.6893 79.4102 36.6295 79.1672 36.6235 78.92C36.6174 78.6727 36.6653 78.4271 36.7639 78.2002C36.8624 77.9733 37.0092 77.7706 37.194 77.6062C37.3788 77.4418 37.5972 77.3197 37.834 77.2483L49.7257 73.6641C49.9593 73.594 50.2051 73.5749 50.4467 73.6081C50.6882 73.6413 50.9198 73.726 51.1258 73.8564C51.3318 73.9869 51.5074 74.16 51.6407 74.3642C51.774 74.5684 51.8618 74.7988 51.8984 75.0398L58.7926 120.643C58.8283 120.885 58.8116 121.131 58.7436 121.366C58.6757 121.6 58.5581 121.817 58.3989 122.002C58.2396 122.188 58.0425 122.336 57.8207 122.438C57.599 122.541 57.3579 122.594 57.1138 122.595V122.595ZM42.1776 93.5091L54.1868 112.92L48.8318 77.4866L40.7542 79.9215L45.091 88.6291C45.2427 88.9335 45.2998 89.2764 45.2549 89.6136C45.21 89.9508 45.0651 90.2667 44.839 90.5208L42.1776 93.5091Z" fill="#0D518C"/>
<path d="M63.029 90.8478C59.3473 90.8451 55.6692 90.6222 52.0142 90.1803C51.7875 90.1595 51.5673 90.0935 51.3666 89.9862C51.1659 89.8789 50.9887 89.7324 50.8456 89.5554C50.7025 89.3784 50.5963 89.1746 50.5333 88.9558C50.4703 88.7371 50.4518 88.508 50.4789 88.282C50.506 88.056 50.5781 87.8377 50.691 87.6401C50.8039 87.4425 50.9553 87.2695 51.1362 87.1313C51.3171 86.9932 51.5239 86.8928 51.7443 86.8359C51.9647 86.7791 52.1943 86.767 52.4194 86.8004C59.3783 87.6562 66.4157 87.6562 73.3746 86.8004C73.8184 86.7524 74.2633 86.8806 74.6135 87.1574C74.9637 87.4342 75.1912 87.8375 75.247 88.2804C75.3028 88.7233 75.1824 89.1704 74.9119 89.5254C74.6413 89.8804 74.2421 90.115 73.8003 90.1786C70.2274 90.627 66.6299 90.8505 63.029 90.8478V90.8478Z" fill="#0D518C"/>
<path d="M75.5847 76.9911C75.3196 76.9901 75.0585 76.9272 74.822 76.8075C74.5855 76.6878 74.3802 76.5145 74.2225 76.3015C71.6923 72.8808 71.2343 66.1006 71.1917 65.3395C71.1657 64.8889 71.3196 64.4463 71.6198 64.1091C71.9199 63.772 72.3416 63.5678 72.7922 63.5414C73.2417 63.5203 73.6815 63.676 74.0176 63.9752C74.3536 64.2743 74.5592 64.6931 74.5903 65.142C74.6942 66.9332 75.3242 72.0669 76.9588 74.277C77.1456 74.53 77.2587 74.8298 77.2855 75.1431C77.3123 75.4564 77.2519 75.7711 77.1108 76.0522C76.9697 76.3332 76.7536 76.5697 76.4863 76.7355C76.219 76.9012 75.9111 76.9897 75.5966 76.9911H75.5847Z" fill="#0D518C"/>
<path d="M50.2195 76.9911C49.905 76.9897 49.5971 76.9012 49.3298 76.7355C49.0625 76.5697 48.8464 76.3332 48.7053 76.0521C48.5642 75.7711 48.5038 75.4564 48.5306 75.1431C48.5574 74.8297 48.6705 74.53 48.8573 74.277C50.4953 72.0635 51.1236 66.9315 51.2275 65.142C51.2405 64.9184 51.2973 64.6995 51.3949 64.4979C51.4924 64.2963 51.6288 64.1158 51.796 63.9669C51.9633 63.818 52.1583 63.7034 52.3698 63.6298C52.5814 63.5563 52.8053 63.525 53.029 63.538C53.2526 63.551 53.4714 63.6079 53.673 63.7054C53.8746 63.803 54.0551 63.9393 54.204 64.1066C54.353 64.2738 54.4675 64.4688 54.5411 64.6804C54.6147 64.8919 54.6459 65.1159 54.6329 65.3395C54.5903 66.1006 54.1221 72.8807 51.6021 76.3015C51.4423 76.5173 51.2338 76.6923 50.9935 76.8121C50.7532 76.932 50.488 76.9933 50.2195 76.9911Z" fill="#0D518C"/>
<path d="M97.318 98.7295C96.8748 98.7297 96.449 98.5571 96.1311 98.2483C95.8132 97.9396 95.6281 97.5191 95.6153 97.0761C95.2969 85.9882 91.081 82.4993 91.0401 82.4653C90.6883 82.1859 90.4602 81.7797 90.4048 81.3339C90.3494 80.8881 90.4711 80.4384 90.7438 80.0815C91.0146 79.7274 91.4142 79.4945 91.8557 79.4333C92.2973 79.3721 92.7451 79.4875 93.1021 79.7546C93.3268 79.9248 98.6478 84.0573 99.0207 96.9774C99.0335 97.4285 98.8668 97.8662 98.5571 98.1944C98.2474 98.5226 97.8201 98.7144 97.369 98.7278L97.318 98.7295Z" fill="#0D518C"/>
<path d="M97.3265 108.782C95.9952 108.783 94.6937 108.388 93.5866 107.649C92.4795 106.909 91.6165 105.858 91.1068 104.628C90.5971 103.399 90.4636 102.045 90.7231 100.739C90.9826 99.4336 91.6235 98.2342 92.5648 97.2927C93.506 96.3512 94.7054 95.71 96.011 95.4501C97.3167 95.1903 98.6702 95.3235 99.9001 95.8329C101.13 96.3423 102.181 97.205 102.921 98.3119C103.661 99.4188 104.056 100.72 104.056 102.051C104.054 103.836 103.344 105.546 102.083 106.808C100.821 108.07 99.1108 108.78 97.3265 108.782V108.782ZM97.3265 98.7261C96.6687 98.7257 96.0256 98.9205 95.4785 99.2857C94.9315 99.6509 94.505 100.17 94.253 100.778C94.0011 101.385 93.935 102.054 94.0631 102.699C94.1912 103.344 94.5078 103.937 94.9728 104.402C95.4378 104.867 96.0303 105.184 96.6754 105.313C97.3205 105.441 97.9892 105.376 98.597 105.124C99.2047 104.872 99.7241 104.446 100.09 103.899C100.455 103.352 100.65 102.709 100.65 102.051C100.649 101.17 100.299 100.325 99.6758 99.7017C99.0527 99.0783 98.2079 98.7274 97.3265 98.7261V98.7261Z" fill="#0D518C"/>
<path d="M27.3829 98.7295C26.9515 98.7305 26.5357 98.5678 26.2197 98.2742C25.9036 97.9806 25.7108 97.578 25.6802 97.1476C24.7522 84.0794 31.9529 79.9027 32.2594 79.7307C32.6527 79.5087 33.1181 79.4521 33.5532 79.5733C33.9883 79.6945 34.3574 79.9835 34.5793 80.3769C34.8013 80.7702 34.8579 81.2356 34.7367 81.6707C34.6155 82.1057 34.3265 82.4749 33.9331 82.6968C33.6743 82.8501 28.3142 86.1584 29.0753 96.9076C29.1072 97.358 28.9588 97.8027 28.6628 98.1437C28.3667 98.4847 27.9474 98.6942 27.4969 98.726L27.3829 98.7295Z" fill="#0D518C"/>
<path d="M23.9383 112.363C23.6748 112.364 23.4147 112.304 23.1783 112.188C22.9419 112.071 22.7358 111.902 22.5761 111.692C21.745 110.601 21.1327 109.359 20.773 108.035C19.9826 105.456 20.2419 102.669 21.4946 100.281C22.7473 97.892 24.8921 96.0942 27.4629 95.2781C28.6823 94.9352 29.9578 94.8387 31.2149 94.9943C32.472 95.1498 33.6855 95.5542 34.7845 96.184C36.7106 97.2968 38.2512 98.971 39.2005 100.983C40.1498 102.994 40.4626 105.248 40.0969 107.442C40.0229 107.888 39.7749 108.286 39.4075 108.548C39.0401 108.811 38.5835 108.917 38.138 108.843C37.6925 108.769 37.2947 108.521 37.032 108.153C36.7694 107.786 36.6635 107.329 36.7375 106.884C36.9874 105.38 36.7752 103.836 36.1288 102.456C35.4825 101.076 34.4324 99.9242 33.1176 99.1535C32.4086 98.7441 31.6252 98.4801 30.813 98.3769C30.0009 98.2737 29.1763 98.3334 28.3875 98.5524C26.6813 99.1231 25.2689 100.343 24.4567 101.949C23.6446 103.554 23.498 105.415 24.049 107.127C24.2954 108.034 24.7152 108.884 25.2851 109.63C25.4769 109.883 25.5944 110.183 25.6244 110.499C25.6545 110.814 25.5959 111.132 25.4552 111.416C25.3145 111.7 25.0974 111.939 24.8282 112.107C24.559 112.274 24.2484 112.363 23.9315 112.363H23.9383Z" fill="#0D518C"/>
<path d="M38.4402 108.869C38.3738 108.869 38.3057 108.869 38.2376 108.859L36.3186 108.632C36.0965 108.606 35.8817 108.536 35.6866 108.427C35.4914 108.317 35.3198 108.171 35.1813 107.995C35.0429 107.819 34.9404 107.618 34.8798 107.402C34.8192 107.187 34.8015 106.962 34.8279 106.74C34.8543 106.518 34.9242 106.303 35.0336 106.108C35.143 105.913 35.2897 105.741 35.4655 105.602C35.8204 105.323 36.2718 105.196 36.7205 105.249L38.6394 105.477C39.0704 105.528 39.4655 105.742 39.744 106.075C40.0226 106.408 40.1635 106.835 40.1381 107.268C40.1127 107.701 39.9228 108.108 39.6072 108.406C39.2916 108.704 38.8742 108.87 38.4402 108.871V108.869Z" fill="#0D518C"/>
<path d="M23.9383 112.378C23.5385 112.379 23.1513 112.239 22.8444 111.983C22.5376 111.726 22.3307 111.37 22.2601 110.977C22.1894 110.583 22.2595 110.177 22.458 109.83C22.6565 109.483 22.9708 109.217 23.3458 109.079L25.389 108.324C25.5986 108.246 25.8216 108.21 26.0452 108.218C26.2689 108.226 26.4887 108.278 26.6923 108.37C26.8959 108.463 27.0792 108.595 27.2317 108.759C27.3842 108.923 27.503 109.115 27.5812 109.325C27.6595 109.534 27.6957 109.757 27.6878 109.981C27.6799 110.204 27.628 110.424 27.5351 110.628C27.4422 110.831 27.3101 111.015 27.1464 111.167C26.9827 111.32 26.7905 111.439 26.5809 111.517L24.5377 112.273C24.3458 112.344 24.1428 112.38 23.9383 112.378V112.378Z" fill="#0D518C"/>
</svg>
